<svg width="1302" height="220" viewBox="0 0 1302 220" fill="none" xmlns="http://www.w3.org/2000/svg">
<g clip-path="url(#clip0_1_686)">
<mask id="mask0_1_686" style="mask-type:luminance" maskUnits="userSpaceOnUse" x="1136" y="54" width="112" height="112">
<path d="M1247.63 108.622C1247.63 78.6969 1222.78 54.4375 1192.12 54.4375C1161.46 54.4375 1136.61 78.6969 1136.61 108.622V111.266C1136.61 141.191 1161.46 165.451 1192.12 165.451C1222.78 165.451 1247.63 141.191 1247.63 111.266V108.622Z" fill="white"/>
</mask>
<g mask="url(#mask0_1_686)">
<path d="M1248.02 108.312C1248.02 77.6563 1223.17 52.8047 1192.51 52.8047C1161.86 52.8047 1137.01 77.6563 1137.01 108.312V111.02C1137.01 141.676 1161.86 166.528 1192.51 166.528C1223.17 166.528 1248.02 141.676 1248.02 111.02V108.312Z" fill="#AD00FF"/>
<g filter="url(#filter0_f_1_686)">
<path d="M1187.8 160.4C1221.06 160.4 1248.02 133.32 1248.02 99.9147C1248.02 66.5098 1221.06 39.4297 1187.8 39.4297C1154.53 39.4297 1127.57 66.5098 1127.57 99.9147C1127.57 133.32 1154.53 160.4 1187.8 160.4Z" fill="#D95AFF"/>
</g>
<g filter="url(#filter1_f_1_686)">
<path d="M1178.97 120.501C1199.54 120.501 1216.21 103.832 1216.21 83.2698C1216.21 62.7078 1199.54 46.0391 1178.97 46.0391C1158.41 46.0391 1141.74 62.7078 1141.74 83.2698C1141.74 103.832 1158.41 120.501 1178.97 120.501Z" fill="#D989FF"/>
</g>
<g opacity="0.45" filter="url(#filter2_f_1_686)">
<path d="M1203.38 160.663C1211.93 158.977 1218.03 153.367 1217.01 148.132C1215.99 142.898 1208.23 140.02 1199.67 141.706C1191.12 143.391 1185.02 149.001 1186.04 154.236C1187.06 159.471 1194.82 162.348 1203.38 160.663Z" fill="#D989FF"/>
</g>
</g>
<path fill-rule="evenodd" clip-rule="evenodd" d="M1123.47 109.999C1123.47 108.176 1123.12 106.37 1122.42 104.685C1121.73 103.001 1120.71 101.471 1119.43 100.182C1118.15 98.8936 1116.64 97.8722 1114.97 97.1756C1113.29 96.4797 1111.51 96.1223 1109.7 96.125H1095.94C1092.29 96.125 1088.79 97.5872 1086.2 100.189C1083.62 102.792 1082.18 106.322 1082.18 110.002C1082.18 113.682 1083.62 117.212 1086.2 119.815C1088.79 122.417 1092.29 123.879 1095.94 123.879H1109.69C1111.51 123.882 1113.29 123.524 1114.97 122.828C1116.64 122.131 1118.15 121.109 1119.43 119.819C1120.71 118.53 1121.73 116.999 1122.42 115.314C1123.12 113.629 1123.47 111.823 1123.47 109.999Z" fill="url(#paint0_linear_1_686)"/>
<path fill-rule="evenodd" clip-rule="evenodd" d="M1123.94 158.438L1114.03 168.352C1111.41 170.977 1109.93 174.537 1109.93 178.249C1109.93 181.96 1111.41 185.52 1114.03 188.145C1116.66 190.77 1120.21 192.244 1123.93 192.244C1127.64 192.244 1131.2 190.769 1133.83 188.143L1143.74 178.233C1145.03 176.933 1146.07 175.39 1146.77 173.691C1147.48 171.992 1147.84 170.172 1147.84 168.333C1147.84 166.495 1147.47 164.675 1146.77 162.976C1146.06 161.278 1145.03 159.734 1143.74 158.435C1142.44 157.135 1140.89 156.104 1139.19 155.401C1137.49 154.697 1135.67 154.336 1133.83 154.336C1130.12 154.337 1126.56 155.812 1123.94 158.438Z" fill="url(#paint1_linear_1_686)"/>
<path fill-rule="evenodd" clip-rule="evenodd" d="M1192.18 178.707C1190.35 178.706 1188.55 179.061 1186.86 179.752C1185.18 180.443 1183.65 181.457 1182.36 182.735C1181.07 184.013 1180.05 185.531 1179.35 187.202C1178.66 188.872 1178.3 190.662 1178.3 192.47V206.236C1178.3 209.887 1179.76 213.387 1182.36 215.968C1184.97 218.549 1188.49 219.999 1192.18 219.999C1195.86 219.999 1199.38 218.549 1201.99 215.968C1204.59 213.387 1206.05 209.887 1206.05 206.236V192.47C1206.05 190.662 1205.7 188.871 1205 187.2C1204.31 185.528 1203.28 184.01 1202 182.731C1200.7 181.453 1199.18 180.439 1197.49 179.749C1195.8 179.058 1194 178.704 1192.18 178.707Z" fill="url(#paint2_linear_1_686)"/>
<path fill-rule="evenodd" clip-rule="evenodd" d="M1260.43 158.494C1259.14 157.183 1257.59 156.14 1255.89 155.427C1254.19 154.712 1252.37 154.342 1250.53 154.336C1248.69 154.33 1246.86 154.689 1245.16 155.391C1243.46 156.094 1241.91 157.126 1240.61 158.43C1239.3 159.733 1238.27 161.281 1237.57 162.986C1236.87 164.69 1236.51 166.516 1236.51 168.359C1236.52 170.202 1236.89 172.026 1237.6 173.726C1238.31 175.425 1239.36 176.966 1240.67 178.261L1250.56 188.148C1251.86 189.447 1253.4 190.476 1255.1 191.179C1256.79 191.882 1258.61 192.244 1260.44 192.244C1262.28 192.244 1264.1 191.882 1265.79 191.179C1267.49 190.476 1269.03 189.447 1270.33 188.148C1271.63 186.849 1272.65 185.308 1273.36 183.611C1274.06 181.915 1274.42 180.096 1274.42 178.26C1274.42 176.423 1274.06 174.605 1273.36 172.908C1272.65 171.212 1271.63 169.67 1270.33 168.371L1260.43 158.494Z" fill="url(#paint3_linear_1_686)"/>
<path fill-rule="evenodd" clip-rule="evenodd" d="M1288.43 96.125L1274.63 96.1541C1270.98 96.1541 1267.49 97.6142 1264.91 100.214C1262.33 102.814 1260.88 106.34 1260.88 110.016C1260.88 113.693 1262.33 117.219 1264.91 119.819C1267.49 122.418 1270.98 123.879 1274.63 123.879H1288.4C1292.05 123.883 1295.55 122.424 1298.13 119.825C1300.72 117.225 1302.17 113.697 1302.18 110.016C1302.18 106.336 1300.73 102.805 1298.15 100.199C1295.58 97.5946 1292.08 96.1291 1288.43 96.125Z" fill="url(#paint4_linear_1_686)"/>
<path fill-rule="evenodd" clip-rule="evenodd" d="M1260.41 61.5642L1270.31 51.6608C1272.94 49.037 1274.42 45.4771 1274.42 41.7642C1274.42 38.0513 1272.95 34.4893 1270.33 31.8615C1267.7 29.2343 1264.14 27.7566 1260.43 27.7539C1256.71 27.7512 1253.15 29.2235 1250.52 31.8473L1240.62 41.773C1239.32 43.0727 1238.28 44.6147 1237.58 46.3124C1236.88 48.0102 1236.51 49.8297 1236.51 51.6676C1236.51 53.5047 1236.87 55.3243 1237.58 57.0227C1238.28 58.7204 1239.32 60.2631 1240.62 61.5622C1241.92 62.8618 1243.45 63.8928 1245.15 64.5961C1246.85 65.2994 1248.67 65.6616 1250.51 65.6616C1252.35 65.6616 1254.17 65.3001 1255.87 64.5968C1257.57 63.8935 1259.11 62.8632 1260.41 61.5642Z" fill="url(#paint5_linear_1_686)"/>
<path fill-rule="evenodd" clip-rule="evenodd" d="M1192.18 41.2923C1194 41.2977 1195.8 40.9464 1197.49 40.258C1199.17 39.5695 1200.7 38.5575 1201.99 37.2809C1203.28 36.0035 1204.31 34.4865 1205 32.8166C1205.69 31.1466 1206.05 29.3561 1206.05 27.5487V13.78C1206.05 11.9719 1205.69 10.1811 1205 8.51001C1204.31 6.83896 1203.28 5.32028 1202 4.04069C1200.71 2.76111 1199.18 1.74566 1197.5 1.05235C1195.81 0.359047 1194.01 0.00149382 1192.19 4.58623e-06C1188.51 -0.00297387 1184.97 1.4449 1182.37 4.02492C1179.77 6.60501 1178.3 10.106 1178.3 13.7577L1178.33 27.5521C1178.33 29.3575 1178.68 31.1452 1179.38 32.8138C1180.07 34.4818 1181.09 35.9981 1182.37 37.2741C1183.66 38.5508 1185.19 39.5621 1186.88 40.2512C1188.55 40.9403 1190.35 41.2957 1192.18 41.2923Z" fill="url(#paint6_linear_1_686)"/>
<path fill-rule="evenodd" clip-rule="evenodd" d="M1124.1 61.5803C1126.7 64.1918 1130.24 65.6594 1133.93 65.6614C1137.61 65.6635 1141.15 64.1986 1143.76 61.5904C1146.37 58.9816 1147.84 55.4426 1147.84 51.7514C1147.84 48.0608 1146.37 44.5205 1143.77 41.9089L1133.92 32.08C1132.65 30.7349 1131.11 29.66 1129.41 28.9174C1127.71 28.1748 1125.88 27.7795 1124.03 27.7551C1122.17 27.7307 1120.33 28.0773 1118.61 28.7746C1116.89 29.4718 1115.34 30.5061 1114.02 31.816C1112.71 33.1258 1111.67 34.6854 1110.96 36.4035C1110.27 38.1208 1109.91 39.9614 1109.93 41.8175C1109.95 43.6736 1110.33 45.5074 1111.07 47.2112C1111.8 48.9144 1112.87 50.4537 1114.21 51.7385L1124.1 61.5803Z" fill="url(#paint7_linear_1_686)"/>
<path d="M30.4838 174.135H80.3846V198.218H0.109375V46.7797H30.4838V174.135ZM213.161 78.0219V198.218H182.569V183.031C178.664 188.238 173.53 192.36 167.165 195.397C160.946 198.29 154.148 199.736 146.771 199.736C137.369 199.736 129.053 197.784 121.821 193.879C114.588 189.829 108.875 183.971 104.681 176.305C100.631 168.494 98.6058 159.237 98.6058 148.534V78.0219H128.98V144.195C128.98 153.741 131.367 161.118 136.14 166.325C140.913 171.387 147.422 173.918 155.666 173.918C164.055 173.918 170.637 171.387 175.41 166.325C180.183 161.118 182.569 153.741 182.569 144.195V78.0219H213.161ZM392.399 76.2862C407.152 76.2862 419.012 80.8424 427.98 89.9547C437.093 98.9226 441.649 111.506 441.649 127.706V198.218H411.274V131.828C411.274 122.426 408.888 115.266 404.115 110.349C399.342 105.286 392.833 102.755 384.588 102.755C376.344 102.755 369.762 105.286 364.845 110.349C360.072 115.266 357.685 122.426 357.685 131.828V198.218H327.311V131.828C327.311 122.426 324.924 115.266 320.151 110.349C315.378 105.286 308.869 102.755 300.625 102.755C292.235 102.755 285.582 105.286 280.664 110.349C275.891 115.266 273.505 122.426 273.505 131.828V198.218H243.13V78.0219H273.505V92.5582C277.41 87.4956 282.4 83.5184 288.475 80.6254C294.694 77.7324 301.493 76.2862 308.869 76.2862C318.27 76.2862 326.66 78.3114 334.037 82.3611C341.413 86.2664 347.126 91.9073 351.176 99.284C355.082 92.3413 360.723 86.7728 368.099 82.5781C375.62 78.3833 383.72 76.2862 392.399 76.2862ZM485.876 63.7025C480.525 63.7025 476.04 62.0394 472.424 58.7125C468.953 55.2411 467.217 50.9744 467.217 45.9118C467.217 40.8492 468.953 36.6551 472.424 33.3281C476.04 29.8568 480.525 28.1211 485.876 28.1211C491.227 28.1211 495.639 29.8568 499.111 33.3281C502.726 36.6551 504.535 40.8492 504.535 45.9118C504.535 50.9744 502.726 55.2411 499.111 58.7125C495.639 62.0394 491.227 63.7025 485.876 63.7025ZM500.846 78.0219V198.218H470.472V78.0219H500.846ZM597.461 76.2862C611.781 76.2862 623.354 80.8424 632.175 89.9547C641.002 98.9226 645.409 111.506 645.409 127.706V198.218H615.035V131.828C615.035 122.282 612.648 114.978 607.875 109.915C603.102 104.708 596.593 102.104 588.349 102.104C579.962 102.104 573.308 104.708 568.391 109.915C563.618 114.978 561.231 122.282 561.231 131.828V198.218H530.857V78.0219H561.231V92.9921C565.281 87.7851 570.415 83.7354 576.633 80.8424C583 77.8049 589.942 76.2862 597.461 76.2862ZM666.482 137.686C666.482 125.536 668.868 114.761 673.641 105.359C678.564 95.957 685.147 88.7255 693.391 83.6628C701.778 78.6002 711.108 76.0692 721.379 76.0692C730.343 76.0692 738.153 77.8775 744.811 81.4932C751.605 85.109 757.029 89.6652 761.083 95.1617V78.0219H791.674V198.218H761.083V180.644C757.178 186.285 751.754 190.986 744.811 194.746C738.011 198.362 730.126 200.17 721.162 200.17C711.033 200.17 701.778 197.567 693.391 192.36C685.147 187.153 678.564 179.849 673.641 170.447C668.868 160.901 666.482 149.98 666.482 137.686ZM761.083 138.12C761.083 130.743 759.632 124.451 756.744 119.244C753.849 113.893 749.944 109.842 745.028 107.095C740.106 104.202 734.831 102.755 729.19 102.755C723.549 102.755 718.342 104.13 713.569 106.878C708.796 109.626 704.89 113.676 701.853 119.027C698.958 124.234 697.514 130.454 697.514 137.686C697.514 144.918 698.958 151.282 701.853 156.778C704.89 162.13 708.796 166.252 713.569 169.145C718.484 172.038 723.691 173.484 729.19 173.484C734.831 173.484 740.106 172.11 745.028 169.362C749.944 166.469 753.849 162.419 756.744 157.212C759.632 151.861 761.083 145.496 761.083 138.12ZM856.701 102.972V161.118C856.701 165.167 857.644 168.133 859.522 170.013C861.549 171.749 864.871 172.616 869.502 172.616H883.604V198.218H864.512C838.911 198.218 826.11 185.778 826.11 160.901V102.972H811.791V78.0219H826.11V48.2984H856.701V78.0219H883.604V102.972H856.701ZM1017.18 135.516C1017.18 139.855 1016.9 143.761 1016.32 147.232H928.447C929.173 155.911 932.21 162.709 937.56 167.626C942.916 172.544 949.492 175.003 957.303 175.003C968.585 175.003 976.612 170.157 981.386 160.467H1014.15C1010.68 172.038 1004.02 181.584 994.186 189.105C984.355 196.482 972.273 200.17 957.954 200.17C946.387 200.17 935.973 197.639 926.712 192.577C917.599 187.37 910.44 180.066 905.233 170.664C900.175 161.262 897.639 150.414 897.639 138.12C897.639 125.681 900.175 114.761 905.233 105.359C910.297 95.957 917.382 88.7255 926.495 83.6628C935.607 78.6002 946.096 76.0692 957.954 76.0692C969.385 76.0692 979.582 78.5284 988.545 83.4459C997.658 88.3634 1004.67 95.3787 1009.59 104.491C1014.66 113.459 1017.18 123.8 1017.18 135.516ZM985.725 126.838C985.582 119.027 982.762 112.808 977.263 108.179C971.772 103.406 965.046 101.02 957.086 101.02C949.567 101.02 943.201 103.334 937.994 107.962C932.936 112.446 929.824 118.738 928.664 126.838H985.725Z" fill="#202124"/>
</g>
<defs>
<filter id="filter0_f_1_686" x="1087.72" y="-0.424179" width="200.159" height="200.676" filterUnits="userSpaceOnUse" color-interpolation-filters="sRGB">
<feFlood flood-opacity="0" result="BackgroundImageFix"/>
<feBlend mode="normal" in="SourceGraphic" in2="BackgroundImageFix" result="shape"/>
<feGaussianBlur stdDeviation="19.9269" result="effect1_foregroundBlur_1_686"/>
</filter>
<filter id="filter1_f_1_686" x="1108.53" y="12.8275" width="140.884" height="140.884" filterUnits="userSpaceOnUse" color-interpolation-filters="sRGB">
<feFlood flood-opacity="0" result="BackgroundImageFix"/>
<feBlend mode="normal" in="SourceGraphic" in2="BackgroundImageFix" result="shape"/>
<feGaussianBlur stdDeviation="16.6058" result="effect1_foregroundBlur_1_686"/>
</filter>
<filter id="filter2_f_1_686" x="1166" y="121.296" width="71.0492" height="59.7757" filterUnits="userSpaceOnUse" color-interpolation-filters="sRGB">
<feFlood flood-opacity="0" result="BackgroundImageFix"/>
<feBlend mode="normal" in="SourceGraphic" in2="BackgroundImageFix" result="shape"/>
<feGaussianBlur stdDeviation="9.96347" result="effect1_foregroundBlur_1_686"/>
</filter>
<linearGradient id="paint0_linear_1_686" x1="1092.52" y1="97.7825" x2="1119.47" y2="118.25" gradientUnits="userSpaceOnUse">
<stop stop-color="#D887FF"/>
<stop offset="1" stop-color="#BD22FF"/>
</linearGradient>
<linearGradient id="paint1_linear_1_686" x1="1123.47" y1="159.683" x2="1133.95" y2="186.141" gradientUnits="userSpaceOnUse">
<stop stop-color="#D887FF"/>
<stop offset="1" stop-color="#BD22FF"/>
</linearGradient>
<linearGradient id="paint2_linear_1_686" x1="1179.88" y1="182.646" x2="1201.34" y2="215.594" gradientUnits="userSpaceOnUse">
<stop stop-color="#D887FF"/>
<stop offset="1" stop-color="#BD22FF"/>
</linearGradient>
<linearGradient id="paint3_linear_1_686" x1="1240.78" y1="159.683" x2="1269.73" y2="188.138" gradientUnits="userSpaceOnUse">
<stop stop-color="#D887FF"/>
<stop offset="1" stop-color="#BD22FF"/>
</linearGradient>
<linearGradient id="paint4_linear_1_686" x1="1264.74" y1="99.7793" x2="1297.19" y2="120.247" gradientUnits="userSpaceOnUse">
<stop stop-color="#D887FF"/>
<stop offset="1" stop-color="#BD22FF"/>
</linearGradient>
<linearGradient id="paint5_linear_1_686" x1="1247.27" y1="35.3824" x2="1262.74" y2="60.3427" gradientUnits="userSpaceOnUse">
<stop stop-color="#D887FF"/>
<stop offset="1" stop-color="#BD22FF"/>
</linearGradient>
<linearGradient id="paint6_linear_1_686" x1="1177.88" y1="14.9138" x2="1205.83" y2="23.8995" gradientUnits="userSpaceOnUse">
<stop stop-color="#D887FF"/>
<stop offset="1" stop-color="#BD22FF"/>
</linearGradient>
<linearGradient id="paint7_linear_1_686" x1="1120.97" y1="27.3951" x2="1140.44" y2="63.3379" gradientUnits="userSpaceOnUse">
<stop stop-color="#D887FF"/>
<stop offset="1" stop-color="#BD22FF"/>
</linearGradient>
<clipPath id="clip0_1_686">
<rect width="1302" height="220" fill="white"/>
</clipPath>
</defs>
</svg>
